<svg width="136" height="34" viewBox="0 0 176 44" fill="none" xmlns="http://www.w3.org/2000/svg">
<g clip-path="url(#clip0_3645_16869)">
<rect y="2" width="40" height="39.9984" fill="#EA6E55"/>
<path d="M14.4996 31.6016H16.4996L11.5996 42.0012H9.59961L14.4996 31.6016Z" fill="#FFF0BA"/>
<path d="M18.4665 19.8023C19.3451 20.2671 20.2098 20.7235 21.0689 21.1771C21.0717 21.1966 21.0772 21.2049 21.0745 21.2133C20.9489 21.5528 21.0466 21.7532 21.3952 21.8617C22.2013 22.1094 22.8066 21.6113 22.9711 20.9239C23.1719 20.1001 22.9209 19.3765 22.3408 18.7809C21.649 18.074 20.7788 17.8514 19.8193 17.9989C17.9422 18.2939 16.7763 19.7884 16.5643 21.4137C16.3049 23.3924 17.3871 25.5687 19.4679 26.5345C21.0968 27.2887 22.748 27.2469 24.3657 26.5289C26.5162 25.5743 27.7909 23.8961 28.2176 21.6001C28.8061 18.4191 27.0852 14.9292 23.8832 13.4236C22.5109 12.7751 21.0689 12.5358 19.5599 12.6666C15.9702 12.9783 12.3665 15.5276 11.3875 19.883C10.8827 22.1233 11.1532 24.2997 12.1406 26.3619C13.6998 29.6125 16.2937 31.5884 19.8333 32.2508C22.8289 32.8102 25.6209 32.159 28.1897 30.5532C28.6304 30.2776 29.0321 29.9437 29.4505 29.6375C29.4783 29.6153 29.509 29.593 29.5564 29.5902C29.4616 29.6988 29.3696 29.8101 29.2719 29.9158C27.3948 31.9363 25.0993 33.1943 22.3714 33.6395C16.1571 34.647 10.1882 30.5865 8.86887 24.4555C7.57746 18.447 11.0584 12.4801 16.9408 10.635C18.6534 10.0979 20.3995 9.96426 22.1762 10.2175C24.4606 10.5431 26.4772 11.4671 28.2316 12.9588C28.7308 13.3846 29.1158 13.9106 29.4783 14.4505C30.4741 15.9339 31.0933 17.5619 31.2523 19.3403C31.5396 22.5631 30.5494 25.335 28.1702 27.5586C26.7142 28.9167 24.9682 29.7127 22.9879 29.9576C20.6254 30.2498 18.4777 29.6988 16.6061 28.221C14.8629 26.8517 13.8532 25.04 13.6049 22.8414C13.3483 20.5593 14.0122 18.5583 15.6494 16.933C16.9659 15.625 18.5893 14.9542 20.4525 15.0016C22.5137 15.0544 24.1593 15.9367 25.236 17.715C26.0895 19.1204 26.2931 20.6428 25.6711 22.1957C25.13 23.5455 24.151 24.4722 22.7006 24.7839C21.3032 25.0845 20.0229 24.8006 18.9825 23.7681C17.9561 22.7495 17.7413 21.1521 18.4191 19.8691C18.4359 19.8496 18.447 19.8329 18.4665 19.8023Z" fill="white"/>
</g>
<path d="M104.932 29.0647C104.843 28.7138 104.776 28.3629 104.731 28.0119C104.686 27.661 104.649 27.3101 104.619 26.9591C104.56 26.2573 104.56 25.5707 104.619 24.8993C104.679 24.2127 104.776 23.5261 104.91 22.8395C104.984 22.5038 105.059 22.1758 105.133 21.8554C105.208 21.535 105.305 21.2145 105.424 20.8941C105.513 20.5737 105.625 20.2533 105.759 19.9329C105.863 19.643 105.99 19.3378 106.139 19.0174C106.273 18.7122 106.414 18.4147 106.563 18.1248C106.712 17.8197 106.869 17.5221 107.032 17.2322C107.196 16.9423 107.368 16.6601 107.546 16.3854C107.725 16.0955 107.919 15.8209 108.127 15.5615C108.53 14.9817 108.954 14.4629 109.401 14.0052C109.624 13.7763 109.863 13.5551 110.116 13.3415C110.369 13.1126 110.63 12.899 110.898 12.7006C111.166 12.5023 111.442 12.3192 111.725 12.1514C112.008 11.9835 112.298 11.8309 112.596 11.6936C112.745 11.6173 112.887 11.5487 113.021 11.4876C113.17 11.4266 113.326 11.3579 113.49 11.2817C113.639 11.2206 113.788 11.1672 113.937 11.1215C114.086 11.0757 114.242 11.0299 114.406 10.9841C114.719 10.8926 115.032 10.8163 115.345 10.7553C115.657 10.679 115.97 10.6256 116.283 10.5951C116.596 10.5493 116.916 10.5264 117.244 10.5264C117.557 10.5111 117.869 10.5111 118.182 10.5264C118.346 10.5417 118.51 10.5569 118.674 10.5722C118.838 10.5722 119.002 10.5874 119.165 10.6179C119.329 10.6485 119.486 10.679 119.635 10.7095C119.798 10.7247 119.962 10.7553 120.126 10.801C120.469 10.8926 120.797 11.0146 121.109 11.1672C121.273 11.2435 121.43 11.3274 121.579 11.419C121.728 11.5105 121.876 11.6173 122.025 11.7394C122.308 11.9683 122.569 12.2505 122.807 12.5862C122.927 12.754 123.031 12.9295 123.12 13.1126C123.21 13.2804 123.292 13.4559 123.366 13.639C123.485 14.0052 123.56 14.4095 123.59 14.852C123.59 15.0656 123.582 15.2716 123.567 15.4699C123.552 15.6683 123.523 15.8667 123.478 16.065C123.403 16.4922 123.284 16.8737 123.12 17.2093C122.956 17.6061 122.77 17.9494 122.562 18.2393C122.353 18.5444 122.115 18.8343 121.847 19.109C121.593 19.3836 121.325 19.6353 121.042 19.8642C120.491 20.3067 119.888 20.6805 119.232 20.9857C119.069 21.062 118.905 21.1306 118.741 21.1917C118.592 21.2527 118.435 21.3213 118.272 21.3976C118.197 21.4281 118.115 21.4587 118.026 21.4892C117.936 21.5044 117.855 21.5273 117.78 21.5578C117.735 21.5731 117.691 21.5884 117.646 21.6036C117.616 21.6036 117.579 21.6112 117.534 21.6265L117.4 21.6494L117.288 21.6952C116.901 21.7867 116.536 21.7333 116.194 21.535C115.866 21.3213 115.657 21.0162 115.568 20.6195C115.464 20.238 115.508 19.8795 115.702 19.5438C115.896 19.2081 116.171 18.9793 116.529 18.8572H116.551L116.752 18.7885L116.953 18.7428C117.013 18.7122 117.072 18.6894 117.132 18.6741C117.192 18.6588 117.259 18.636 117.333 18.6054L118.071 18.3308C118.19 18.2698 118.301 18.2164 118.406 18.1706C118.525 18.1096 118.644 18.0485 118.763 17.9875C118.882 17.9265 118.994 17.8654 119.098 17.8044C119.203 17.7434 119.314 17.6747 119.434 17.5984C119.642 17.4611 119.836 17.3162 120.014 17.1636C120.193 16.9957 120.357 16.8203 120.506 16.6372C120.804 16.2862 121.035 15.8972 121.199 15.4699C121.273 15.2563 121.318 15.0427 121.333 14.8291C121.363 14.6155 121.363 14.4019 121.333 14.1883C121.303 13.9442 121.258 13.7229 121.199 13.5246C121.139 13.2957 121.035 13.0745 120.886 12.8609C120.737 12.632 120.581 12.4336 120.417 12.2658C120.312 12.159 120.208 12.0674 120.104 11.9912C120 11.9149 119.888 11.8386 119.769 11.7623C119.515 11.6097 119.255 11.4953 118.987 11.419C118.718 11.3274 118.435 11.2664 118.138 11.2359C117.84 11.2206 117.549 11.2206 117.266 11.2359C117.117 11.2511 116.968 11.2664 116.819 11.2817C116.685 11.2969 116.544 11.3198 116.395 11.3503C115.814 11.4724 115.27 11.6555 114.764 11.8996C114.629 11.9759 114.495 12.0522 114.361 12.1285C114.242 12.2048 114.123 12.2811 114.004 12.3573C113.751 12.5252 113.52 12.693 113.311 12.8609C113.088 13.0592 112.872 13.2576 112.663 13.4559C112.47 13.6543 112.276 13.8602 112.082 14.0739C111.695 14.5163 111.337 14.9741 111.01 15.4471C110.846 15.6759 110.689 15.9124 110.541 16.1566C110.392 16.3854 110.243 16.6295 110.094 16.8889C109.796 17.3924 109.535 17.9112 109.312 18.4452C109.088 18.9793 108.887 19.5133 108.708 20.0473C108.664 20.1846 108.619 20.322 108.574 20.4593C108.53 20.5966 108.492 20.7415 108.462 20.8941C108.418 21.0314 108.373 21.1688 108.328 21.3061C108.299 21.4434 108.269 21.5807 108.239 21.718C108.165 22.0079 108.105 22.2902 108.06 22.5649C108.016 22.8395 107.971 23.1218 107.926 23.4117C107.882 23.6863 107.844 23.9686 107.815 24.2585C107.8 24.5331 107.785 24.8078 107.77 25.0824C107.725 25.647 107.725 26.2039 107.77 26.7531C107.8 27.3024 107.867 27.8288 107.971 28.3323C108.031 28.5917 108.09 28.8435 108.15 29.0876C108.224 29.3317 108.306 29.5682 108.395 29.7971C108.574 30.2701 108.798 30.6973 109.066 31.0788C109.319 31.4602 109.647 31.8035 110.049 32.1087C110.153 32.185 110.257 32.2536 110.362 32.3146C110.466 32.3757 110.578 32.4291 110.697 32.4749C110.816 32.5359 110.935 32.5893 111.054 32.6351C111.174 32.6808 111.3 32.7266 111.434 32.7724C111.553 32.8029 111.68 32.8334 111.814 32.8639C111.948 32.8792 112.082 32.9021 112.216 32.9326C112.246 32.9326 112.276 32.9402 112.306 32.9555C112.35 32.9555 112.388 32.9555 112.417 32.9555L112.529 32.9784H112.641C112.715 32.9936 112.782 33.0012 112.842 33.0012C112.916 33.0012 112.991 33.0012 113.065 33.0012C113.363 33.0318 113.654 33.047 113.937 33.047C114.22 33.0318 114.51 33.0089 114.808 32.9784C115.374 32.9173 115.94 32.8029 116.506 32.6351C117.072 32.4672 117.616 32.2536 118.138 31.9942C118.659 31.7196 119.158 31.4068 119.635 31.0559C120.126 30.6744 120.558 30.2701 120.931 29.8429C121.035 29.7208 121.132 29.6064 121.221 29.4996C121.325 29.3775 121.415 29.2554 121.489 29.1334C121.504 29.1029 121.541 29.0495 121.601 28.9732C121.66 28.8969 121.72 28.8206 121.78 28.7443C121.854 28.6528 121.921 28.5688 121.981 28.4925C122.04 28.401 122.078 28.34 122.092 28.3095C122.137 28.2637 122.174 28.2026 122.204 28.1264C122.219 28.1111 122.227 28.0958 122.227 28.0806C122.241 28.0653 122.256 28.0501 122.271 28.0348L122.294 27.989C122.294 27.9738 122.301 27.9585 122.316 27.9433C122.361 27.8517 122.428 27.7907 122.517 27.7602C122.621 27.7144 122.718 27.7144 122.807 27.7602C122.897 27.8059 122.956 27.8822 122.986 27.989C123.031 28.0958 123.031 28.195 122.986 28.2866C122.971 28.3018 122.964 28.3171 122.964 28.3323C122.964 28.3323 122.956 28.34 122.942 28.3552L122.919 28.4239C122.904 28.4391 122.889 28.4544 122.875 28.4697C122.875 28.4849 122.867 28.5002 122.852 28.5154L122.718 28.7214C122.688 28.7519 122.644 28.813 122.584 28.9045C122.524 28.9808 122.457 29.0647 122.383 29.1563C122.323 29.2478 122.264 29.3394 122.204 29.4309C122.145 29.5072 122.107 29.5606 122.092 29.5911C121.914 29.8658 121.713 30.1175 121.489 30.3464C121.102 30.8041 120.648 31.2542 120.126 31.6967C119.158 32.5054 118.063 33.1462 116.842 33.6192C116.544 33.7413 116.238 33.8481 115.925 33.9396C115.628 34.0464 115.322 34.138 115.009 34.2143C114.711 34.2905 114.399 34.3592 114.071 34.4202C113.758 34.4813 113.445 34.527 113.132 34.5576C113.058 34.5728 112.976 34.5804 112.887 34.5804C112.797 34.5957 112.715 34.611 112.641 34.6262H112.395C112.35 34.6415 112.268 34.6491 112.149 34.6491C111.985 34.6644 111.814 34.672 111.635 34.672C111.472 34.672 111.3 34.6567 111.121 34.6262C110.779 34.5957 110.429 34.5499 110.071 34.4889C109.893 34.4431 109.714 34.3897 109.535 34.3287C109.371 34.2829 109.2 34.2219 109.021 34.1456C108.857 34.0693 108.686 33.993 108.507 33.9167C108.343 33.8404 108.179 33.7489 108.016 33.6421C107.852 33.5353 107.695 33.4285 107.546 33.3217C107.397 33.1996 107.256 33.0699 107.122 32.9326C106.973 32.8105 106.831 32.6808 106.697 32.5435C106.578 32.4062 106.459 32.2536 106.34 32.0858C106.221 31.9332 106.109 31.7806 106.005 31.628C105.9 31.4755 105.804 31.3153 105.714 31.1474C105.535 30.8117 105.379 30.4684 105.245 30.1175C105.126 29.7666 105.021 29.4156 104.932 29.0647Z" fill="#49494A"/>
<path d="M132.547 33.9167C132.398 34.0998 132.249 34.2371 132.1 34.3287C132.026 34.405 131.937 34.4736 131.832 34.5347C131.728 34.5957 131.616 34.6491 131.497 34.6949C131.363 34.7559 131.236 34.794 131.117 34.8093C131.102 34.8246 131.087 34.8322 131.073 34.8322H130.961V34.8551H130.916C130.886 34.8551 130.857 34.8551 130.827 34.8551C130.812 34.8703 130.79 34.878 130.76 34.878C130.551 34.9085 130.328 34.9085 130.089 34.878C129.97 34.8627 129.851 34.8398 129.732 34.8093C129.613 34.794 129.486 34.7559 129.352 34.6949C129.114 34.6033 128.883 34.4584 128.659 34.26C128.436 34.0617 128.265 33.8557 128.146 33.6421C127.997 33.4285 127.892 33.2072 127.833 32.9784C127.743 32.78 127.676 32.574 127.632 32.3604C127.602 32.2536 127.579 32.1544 127.565 32.0629C127.565 31.9561 127.557 31.8493 127.542 31.7425C127.527 31.6509 127.512 31.5594 127.498 31.4678C127.498 31.3763 127.498 31.2847 127.498 31.1932C127.468 31.2695 127.438 31.3381 127.408 31.3992C127.378 31.4602 127.349 31.5212 127.319 31.5823C127.259 31.7043 127.2 31.834 127.14 31.9713C127.08 32.0934 127.013 32.2155 126.939 32.3375C126.82 32.5817 126.671 32.8258 126.492 33.0699C126.403 33.192 126.313 33.3064 126.224 33.4132C126.135 33.5353 126.03 33.6573 125.911 33.7794C125.851 33.8404 125.792 33.8938 125.732 33.9396C125.673 33.9854 125.606 34.0388 125.531 34.0998C125.397 34.1914 125.241 34.2829 125.062 34.3745C124.988 34.405 124.906 34.4355 124.816 34.466C124.727 34.4965 124.63 34.5194 124.526 34.5347C124.511 34.5347 124.496 34.5347 124.481 34.5347C124.481 34.5499 124.466 34.5576 124.436 34.5576H124.235C124.176 34.5728 124.124 34.5728 124.079 34.5576C124.034 34.5576 123.982 34.5576 123.922 34.5576C123.833 34.5423 123.736 34.5194 123.632 34.4889C123.528 34.4736 123.423 34.4431 123.319 34.3973C123.111 34.3058 122.932 34.1837 122.783 34.0312C122.619 33.8938 122.492 33.7413 122.403 33.5734C122.343 33.4971 122.291 33.4132 122.247 33.3217C122.202 33.2301 122.165 33.1462 122.135 33.0699C122.06 32.9021 122.008 32.7419 121.978 32.5893C121.934 32.4367 121.897 32.2765 121.867 32.1087C121.837 31.9561 121.822 31.8035 121.822 31.6509C121.807 31.4983 121.792 31.3458 121.777 31.1932C121.777 31.0406 121.777 30.8957 121.777 30.7583C121.777 30.6058 121.785 30.4532 121.8 30.3006C121.815 30.0107 121.844 29.7284 121.889 29.4538C121.919 29.1639 121.964 28.874 122.023 28.5841C122.068 28.3095 122.127 28.0348 122.202 27.7602C122.276 27.4855 122.351 27.2109 122.425 26.9362C122.619 26.3564 122.82 25.8148 123.029 25.3113C123.148 25.0519 123.274 24.7925 123.409 24.5331C123.543 24.2737 123.692 24.0144 123.855 23.755C124.004 23.5108 124.183 23.2591 124.392 22.9997C124.496 22.8776 124.6 22.7632 124.704 22.6564C124.809 22.5343 124.92 22.4123 125.04 22.2902C125.248 22.0766 125.516 21.863 125.844 21.6494C126.127 21.451 126.47 21.2908 126.872 21.1688C127.066 21.0925 127.267 21.0467 127.475 21.0314C127.684 21.0009 127.892 20.9857 128.101 20.9857C128.503 21.0162 128.905 21.1001 129.307 21.2374C129.635 21.3595 129.97 21.535 130.313 21.7638C130.387 21.8249 130.454 21.8859 130.514 21.9469C130.588 21.9927 130.656 22.0461 130.715 22.1071C130.804 22.1682 130.871 22.2216 130.916 22.2673C130.961 22.2826 130.991 22.3131 131.006 22.3589L131.095 22.4275C131.408 22.7327 131.572 23.0989 131.587 23.5261C131.601 23.9533 131.467 24.3271 131.184 24.6476C130.886 24.9527 130.529 25.1206 130.112 25.1511C129.695 25.1663 129.337 25.0214 129.039 24.7162C129.009 24.701 128.987 24.6857 128.972 24.6704C128.972 24.6552 128.957 24.6399 128.928 24.6247L128.905 24.5789C128.905 24.5789 128.898 24.5713 128.883 24.556L128.838 24.5102C128.823 24.4797 128.808 24.4645 128.793 24.4645C128.779 24.4492 128.764 24.434 128.749 24.4187L128.57 24.2356C128.496 24.1746 128.429 24.1288 128.369 24.0983C128.324 24.0525 128.272 24.0144 128.213 23.9838C128.153 23.9533 128.101 23.9304 128.056 23.9152C128.011 23.8999 127.967 23.8923 127.922 23.8923C127.818 23.877 127.714 23.877 127.609 23.8923C127.475 23.8923 127.341 23.9381 127.207 24.0296C127.133 24.0601 127.058 24.0983 126.984 24.1441C126.909 24.1898 126.835 24.2432 126.76 24.3043C126.596 24.4263 126.44 24.5713 126.291 24.7391C126.157 24.8917 126.015 25.0519 125.866 25.2197C125.732 25.4028 125.598 25.5935 125.464 25.7919C125.345 25.975 125.226 26.1733 125.107 26.387C124.988 26.6006 124.876 26.8218 124.772 27.0507C124.682 27.2643 124.585 27.4779 124.481 27.6915C124.287 28.1645 124.131 28.6299 124.012 29.0876C123.937 29.3165 123.87 29.553 123.811 29.7971C123.766 30.026 123.729 30.2625 123.699 30.5066C123.669 30.6287 123.647 30.7431 123.632 30.8499C123.632 30.9567 123.625 31.0711 123.61 31.1932C123.61 31.3153 123.61 31.4297 123.61 31.5365C123.61 31.6433 123.617 31.7577 123.632 31.8798C123.632 31.9866 123.639 32.0934 123.654 32.2002C123.669 32.2918 123.692 32.3757 123.721 32.452C123.736 32.4977 123.751 32.5435 123.766 32.5893C123.781 32.6198 123.796 32.6503 123.811 32.6808C123.826 32.7113 123.841 32.7419 123.855 32.7724C123.87 32.7876 123.885 32.8105 123.9 32.841C123.93 32.8563 123.967 32.8868 124.012 32.9326C124.012 32.9326 124.057 32.9478 124.146 32.9784C124.161 32.9784 124.168 32.986 124.168 33.0012C124.183 33.0012 124.205 33.0012 124.235 33.0012H124.325C124.369 33.0012 124.436 32.986 124.526 32.9555C124.675 32.925 124.831 32.841 124.995 32.7037C125.069 32.6274 125.144 32.5588 125.218 32.4977C125.308 32.4214 125.39 32.3375 125.464 32.246C125.539 32.1544 125.613 32.0629 125.688 31.9713C125.762 31.8798 125.837 31.7806 125.911 31.6738L126.313 31.0559C126.432 30.8423 126.552 30.621 126.671 30.3922C126.79 30.1633 126.909 29.9268 127.028 29.6827C127.237 29.2554 127.438 28.7824 127.632 28.2637C127.661 28.1874 127.691 28.1111 127.721 28.0348C127.751 27.9433 127.781 27.8593 127.81 27.7831C127.84 27.6305 127.87 27.516 127.9 27.4398C127.915 27.3635 127.93 27.2872 127.944 27.2109C127.959 27.1193 127.982 27.0278 128.011 26.9362C128.026 26.8905 128.049 26.8065 128.078 26.6845L128.123 26.5472C128.138 26.5167 128.146 26.4938 128.146 26.4785C128.146 26.4632 128.153 26.4404 128.168 26.4098V26.3641C128.317 25.9521 128.577 25.647 128.95 25.4486C129.337 25.2502 129.739 25.2197 130.156 25.3571C130.574 25.4944 130.879 25.7614 131.073 26.1581C131.266 26.5395 131.296 26.9439 131.162 27.3711C131.132 27.4321 131.117 27.4779 131.117 27.5084C131.117 27.5084 131.102 27.5389 131.073 27.6L131.028 27.6915L130.961 27.8975C130.931 27.9738 130.901 28.0424 130.871 28.1035C130.857 28.1645 130.834 28.2332 130.804 28.3095C130.76 28.4468 130.715 28.5841 130.67 28.7214C130.626 28.8587 130.581 29.0037 130.536 29.1563C130.507 29.2936 130.469 29.4309 130.425 29.5682C130.38 29.7055 130.343 29.8505 130.313 30.0031C130.298 30.0794 130.283 30.148 130.268 30.2091C130.253 30.2701 130.238 30.3388 130.224 30.415L130.156 30.827C130.127 30.9643 130.104 31.1016 130.089 31.239C130.075 31.361 130.067 31.4831 130.067 31.6052C130.037 31.7272 130.037 31.8417 130.067 31.9485C130.067 32.101 130.075 32.2078 130.089 32.2689C130.089 32.3299 130.104 32.4062 130.134 32.4977C130.164 32.5588 130.179 32.6045 130.179 32.6351C130.194 32.6656 130.224 32.7037 130.268 32.7495C130.283 32.7648 130.335 32.7953 130.425 32.841C130.514 32.8716 130.603 32.8868 130.693 32.8868C130.723 32.8868 130.745 32.8944 130.76 32.9097H130.871C130.901 32.8944 130.939 32.8868 130.983 32.8868C131.028 32.8716 131.073 32.8487 131.117 32.8182C131.162 32.7876 131.207 32.7571 131.251 32.7266C131.296 32.6961 131.348 32.6656 131.408 32.6351C131.512 32.5588 131.609 32.4749 131.698 32.3833C131.803 32.2918 131.899 32.185 131.989 32.0629C132.197 31.8493 132.391 31.628 132.57 31.3992C132.659 31.2771 132.748 31.155 132.838 31.033C132.942 30.8957 133.031 30.766 133.106 30.6439C133.151 30.5829 133.195 30.5218 133.24 30.4608C133.285 30.3998 133.329 30.3311 133.374 30.2548C133.478 30.1328 133.56 30.0031 133.62 29.8658C133.665 29.7895 133.709 29.7208 133.754 29.6598C133.799 29.5987 133.836 29.5301 133.866 29.4538C133.97 29.3317 134.052 29.202 134.111 29.0647C134.156 28.9884 134.193 28.9198 134.223 28.8587C134.268 28.7977 134.313 28.729 134.357 28.6528L134.581 28.2408V28.2179C134.64 28.1416 134.715 28.0882 134.804 28.0577C134.893 28.0272 134.983 28.0348 135.072 28.0806C135.251 28.1874 135.311 28.3323 135.251 28.5154L135.206 28.6299L135.162 28.7672L135.095 28.9961C135.065 29.0723 135.035 29.1486 135.005 29.2249C134.99 29.3012 134.968 29.3775 134.938 29.4538C134.908 29.5301 134.879 29.6064 134.849 29.6827C134.819 29.759 134.789 29.8352 134.759 29.9115C134.715 30.0488 134.655 30.2014 134.581 30.3693C134.551 30.4456 134.521 30.5218 134.491 30.5981C134.461 30.6744 134.432 30.7507 134.402 30.827C134.372 30.9033 134.335 30.9796 134.29 31.0559C134.26 31.1322 134.231 31.2084 134.201 31.2847C134.126 31.4373 134.052 31.5899 133.977 31.7425C133.903 31.8798 133.828 32.0247 133.754 32.1773C133.59 32.4825 133.411 32.78 133.218 33.0699C133.054 33.3445 132.83 33.6268 132.547 33.9167Z" fill="#49494A"/>
<path d="M148.67 27.9433C148.759 28.0348 148.781 28.1492 148.737 28.2866C148.677 28.4086 148.64 28.4925 148.625 28.5383L148.491 28.7901C148.476 28.8358 148.446 28.9045 148.402 28.9961C148.357 29.0723 148.305 29.1563 148.245 29.2478C148.201 29.3394 148.148 29.4309 148.089 29.5225C148.044 29.5987 148.014 29.6598 147.999 29.7055C147.925 29.8734 147.843 30.0336 147.754 30.1862C147.664 30.3387 147.575 30.499 147.485 30.6668C147.381 30.8346 147.284 30.9948 147.195 31.1474C147.106 31.3 147.009 31.4526 146.905 31.6052C146.845 31.6814 146.793 31.7577 146.748 31.834C146.703 31.9103 146.651 31.9866 146.592 32.0629C146.532 32.1392 146.473 32.2155 146.413 32.2918C146.368 32.368 146.316 32.4443 146.257 32.5206C146.137 32.6732 146.018 32.8258 145.899 32.9784C145.795 33.1157 145.676 33.2606 145.542 33.4132C145.259 33.7336 144.961 34.0083 144.648 34.2371C144.558 34.3134 144.469 34.3821 144.38 34.4431C144.29 34.5041 144.193 34.5652 144.089 34.6262C143.985 34.672 143.873 34.7178 143.754 34.7635C143.635 34.8246 143.508 34.8703 143.374 34.9009C143.3 34.9161 143.225 34.9314 143.151 34.9466C143.076 34.9619 143.002 34.9695 142.927 34.9695H142.681C142.637 34.9695 142.592 34.9619 142.547 34.9466C142.503 34.9466 142.451 34.939 142.391 34.9237C142.346 34.9085 142.294 34.8932 142.235 34.878C142.19 34.878 142.145 34.8627 142.101 34.8322C142.041 34.8017 141.981 34.7712 141.922 34.7406C141.877 34.7254 141.825 34.7025 141.765 34.672C141.706 34.6262 141.616 34.5423 141.497 34.4202C141.453 34.3897 141.408 34.3439 141.363 34.2829C141.333 34.2371 141.304 34.1914 141.274 34.1456C141.155 33.9472 141.073 33.7718 141.028 33.6192C140.998 33.5276 140.976 33.4514 140.961 33.3903C140.946 33.314 140.931 33.2377 140.916 33.1615C140.886 33.0089 140.872 32.8716 140.872 32.7495C140.872 32.6274 140.872 32.5054 140.872 32.3833C140.886 32.2612 140.894 32.1468 140.894 32.04C140.894 31.9332 140.901 31.8264 140.916 31.7196C140.931 31.6128 140.946 31.5136 140.961 31.4221C140.976 31.3153 140.991 31.2161 141.006 31.1245C141.035 30.9109 141.065 30.7126 141.095 30.5295C141.14 30.3464 141.184 30.1633 141.229 29.9802L141.497 28.8816C141.587 28.5307 141.676 28.1798 141.765 27.8288C141.87 27.4779 141.966 27.127 142.056 26.776C142.101 26.6082 142.138 26.4404 142.168 26.2725C142.212 26.1047 142.257 25.9369 142.302 25.769C142.346 25.6012 142.384 25.441 142.413 25.2884C142.458 25.1206 142.495 24.9603 142.525 24.8078C142.54 24.7315 142.562 24.6323 142.592 24.5102C142.562 24.5102 142.54 24.5179 142.525 24.5331C142.525 24.5331 142.518 24.5331 142.503 24.5331C142.413 24.5636 142.346 24.5942 142.302 24.6247C142.227 24.6552 142.16 24.6933 142.101 24.7391C142.041 24.7696 141.974 24.8001 141.899 24.8307C141.765 24.9069 141.631 24.9909 141.497 25.0824C141.363 25.174 141.237 25.2808 141.117 25.4028C141.058 25.4486 140.998 25.502 140.939 25.563C140.879 25.6241 140.819 25.6851 140.76 25.7461C140.7 25.8072 140.641 25.8682 140.581 25.9292C140.536 25.9903 140.484 26.0513 140.425 26.1123C140.216 26.3717 140.008 26.6463 139.799 26.9362C139.605 27.2109 139.412 27.4932 139.218 27.7831C139.144 27.9204 139.047 28.073 138.928 28.2408C138.883 28.3171 138.838 28.3934 138.794 28.4697C138.749 28.5459 138.704 28.6222 138.66 28.6985C138.585 28.8511 138.503 29.0037 138.414 29.1563C138.324 29.2936 138.242 29.4462 138.168 29.614C138.004 29.9344 137.84 30.2548 137.676 30.5752C137.527 30.8957 137.386 31.2161 137.252 31.5365C137.177 31.7043 137.11 31.8722 137.051 32.04C136.991 32.1926 136.924 32.3528 136.85 32.5206C136.82 32.5969 136.79 32.6808 136.76 32.7724C136.73 32.8639 136.701 32.9478 136.671 33.0241C136.641 33.1004 136.611 33.1843 136.581 33.2759C136.567 33.3674 136.544 33.4514 136.514 33.5276C136.5 33.5276 136.492 33.5353 136.492 33.5505L136.447 33.7794C136.373 34.2219 136.157 34.5652 135.799 34.8093C135.457 35.0687 135.07 35.1602 134.638 35.084C134.206 35.0077 133.87 34.7864 133.632 34.4202C133.394 34.054 133.312 33.6497 133.386 33.2072C133.386 33.1462 133.394 33.1004 133.409 33.0699L136.358 22.1071C136.433 21.8172 136.596 21.6036 136.85 21.4663C137.103 21.3137 137.371 21.2756 137.654 21.3519C137.922 21.4281 138.131 21.5884 138.28 21.8325C138.429 22.0614 138.481 22.3131 138.436 22.5877L137.274 29.1105C137.334 28.9579 137.393 28.8053 137.453 28.6528C137.513 28.5002 137.572 28.34 137.632 28.1721C137.661 28.0958 137.691 28.0119 137.721 27.9204C137.766 27.8288 137.803 27.7449 137.833 27.6686C137.863 27.5771 137.9 27.4932 137.944 27.4169C137.989 27.3253 138.026 27.2338 138.056 27.1422C138.205 26.8066 138.354 26.4709 138.503 26.1352C138.667 25.7995 138.838 25.4639 139.017 25.1282C139.047 25.0519 139.084 24.9756 139.129 24.8993C139.188 24.8078 139.24 24.7162 139.285 24.6247L139.553 24.1212C139.658 23.9533 139.754 23.7855 139.844 23.6177C139.948 23.4346 140.06 23.2515 140.179 23.0684C140.239 22.9921 140.298 22.9082 140.358 22.8166C140.417 22.7251 140.477 22.6335 140.536 22.542C140.611 22.4657 140.685 22.3818 140.76 22.2902C140.834 22.1987 140.909 22.1148 140.983 22.0385C141.132 21.8859 141.311 21.7257 141.52 21.5578C141.683 21.4053 141.899 21.2679 142.168 21.1459C142.287 21.0848 142.406 21.0314 142.525 20.9857C142.659 20.9246 142.793 20.8789 142.927 20.8484C143.002 20.8331 143.069 20.8178 143.128 20.8026C143.203 20.7873 143.277 20.7721 143.352 20.7568C143.456 20.7568 143.531 20.7492 143.575 20.7339H143.977C144.052 20.7339 144.112 20.7415 144.156 20.7568C144.231 20.7568 144.298 20.7644 144.357 20.7797C144.432 20.7949 144.506 20.8102 144.581 20.8255C144.73 20.8712 144.879 20.9399 145.028 21.0314C145.147 21.0925 145.288 21.1917 145.452 21.329C145.527 21.39 145.586 21.451 145.631 21.5121C145.69 21.5731 145.75 21.6341 145.81 21.6952C145.854 21.7715 145.892 21.8401 145.921 21.9011C145.966 21.9622 146.003 22.0308 146.033 22.1071C146.108 22.2292 146.16 22.3512 146.19 22.4733C146.219 22.5801 146.249 22.6869 146.279 22.7937C146.324 23.0073 146.346 23.1904 146.346 23.343C146.376 23.5108 146.376 23.6634 146.346 23.8007C146.346 24.0754 146.324 24.3271 146.279 24.556C146.249 24.6628 146.227 24.7696 146.212 24.8764C146.197 24.9832 146.175 25.09 146.145 25.1968C146.115 25.3036 146.085 25.4028 146.055 25.4944C146.026 25.5859 145.996 25.6851 145.966 25.7919C145.907 25.975 145.847 26.1581 145.787 26.3412C145.728 26.5243 145.661 26.6997 145.586 26.8676C145.512 27.0507 145.437 27.2261 145.363 27.394C145.303 27.5618 145.236 27.7297 145.162 27.8975C145.013 28.2484 144.864 28.5841 144.715 28.9045C144.581 29.2249 144.447 29.5453 144.313 29.8658L143.91 30.827C143.791 31.1169 143.672 31.4297 143.553 31.7654C143.464 32.04 143.419 32.2307 143.419 32.3375C143.434 32.4443 143.478 32.4977 143.553 32.4977C143.642 32.4825 143.761 32.4367 143.91 32.3604C144.059 32.2841 144.223 32.2078 144.402 32.1315C144.476 32.0858 144.543 32.04 144.603 31.9942C144.663 31.9332 144.722 31.8798 144.782 31.834L145.184 31.4907C145.437 31.2619 145.683 31.0254 145.921 30.7812C146.16 30.5371 146.398 30.2853 146.636 30.026C146.756 29.9039 146.867 29.7742 146.972 29.6369C147.091 29.4996 147.21 29.3622 147.329 29.2249C147.389 29.1639 147.485 29.0342 147.62 28.8358C147.754 28.6222 147.85 28.4773 147.91 28.401L148.089 28.195L148.245 27.989H148.268C148.372 27.8212 148.506 27.8059 148.67 27.9433Z" fill="#49494A"/>
<path d="M162.331 32.246C162.183 32.5206 162.026 32.7648 161.862 32.9784C161.788 33.1004 161.698 33.2225 161.594 33.3445C161.505 33.4514 161.4 33.5582 161.281 33.665C161.073 33.8938 160.827 34.0998 160.544 34.2829C160.395 34.3592 160.239 34.4355 160.075 34.5118C159.926 34.5881 159.769 34.6491 159.605 34.6949C159.516 34.7254 159.427 34.7406 159.337 34.7406C159.248 34.7559 159.159 34.7712 159.069 34.7864H158.756C158.682 34.7864 158.57 34.7712 158.421 34.7406C158.302 34.7101 158.183 34.672 158.064 34.6262C157.959 34.5804 157.855 34.527 157.751 34.466C157.513 34.3134 157.341 34.1685 157.237 34.0312C157.118 33.8938 157.006 33.7413 156.902 33.5734C156.842 33.4971 156.79 33.4208 156.745 33.3445C156.716 33.2683 156.678 33.192 156.634 33.1157C156.485 32.78 156.373 32.4749 156.299 32.2002C156.209 31.9408 156.142 31.6586 156.097 31.3534C156.023 31.0635 155.971 30.7812 155.941 30.5066C155.911 30.2167 155.881 29.9344 155.852 29.6598C155.837 29.4767 155.822 29.2936 155.807 29.1105C155.807 28.9274 155.8 28.7519 155.785 28.5841C155.755 28.6451 155.71 28.7519 155.651 28.9045C155.576 29.0266 155.509 29.1563 155.449 29.2936C155.405 29.4156 155.345 29.5377 155.271 29.6598C155.196 29.7971 155.129 29.9344 155.07 30.0717C155.01 30.1938 154.943 30.3159 154.869 30.4379C154.794 30.56 154.72 30.6897 154.645 30.827C154.585 30.9491 154.518 31.0711 154.444 31.1932C154.325 31.4373 154.176 31.6814 153.997 31.9256C153.923 32.0476 153.841 32.1697 153.751 32.2918C153.677 32.4138 153.595 32.5359 153.506 32.6579C153.416 32.78 153.319 32.9021 153.215 33.0241C153.126 33.1309 153.029 33.2454 152.925 33.3674C152.805 33.4895 152.686 33.6039 152.567 33.7107C152.463 33.8175 152.344 33.9244 152.21 34.0312C152.135 34.0922 152.061 34.1456 151.986 34.1914C151.912 34.2371 151.837 34.2829 151.763 34.3287C151.614 34.4202 151.427 34.4889 151.204 34.5347C151.174 34.5499 151.144 34.5576 151.115 34.5576C151.1 34.5576 151.077 34.5652 151.048 34.5804H150.958L150.914 34.6033H150.556C150.333 34.6033 150.109 34.5576 149.886 34.466C149.677 34.3745 149.476 34.2448 149.282 34.0769C149.208 34.0006 149.133 33.9244 149.059 33.8481C148.985 33.7718 148.917 33.6879 148.858 33.5963C148.724 33.4132 148.627 33.2377 148.567 33.0699C148.523 32.9936 148.478 32.9097 148.433 32.8182C148.404 32.7266 148.374 32.6427 148.344 32.5664C148.299 32.3986 148.262 32.2307 148.232 32.0629C148.188 31.8798 148.15 31.7043 148.121 31.5365C148.091 31.3687 148.076 31.2084 148.076 31.0559C148.061 30.888 148.046 30.7202 148.031 30.5524V30.0717C148.031 29.9954 148.039 29.9192 148.054 29.8429C148.054 29.7513 148.054 29.6674 148.054 29.5911C148.068 29.4233 148.083 29.2707 148.098 29.1334C148.113 28.9808 148.135 28.8206 148.165 28.6528C148.21 28.3476 148.27 28.0424 148.344 27.7373C148.418 27.4321 148.5 27.127 148.59 26.8218C148.62 26.7455 148.642 26.6692 148.657 26.5929C148.687 26.5167 148.716 26.4404 148.746 26.3641C148.776 26.2725 148.806 26.2039 148.836 26.1581L148.925 25.9292C148.999 25.7766 149.066 25.6317 149.126 25.4944C149.201 25.3418 149.275 25.1892 149.349 25.0366C149.692 24.4416 150.079 23.9152 150.511 23.4574C150.631 23.3354 150.742 23.221 150.847 23.1141C150.966 22.9921 151.092 22.8776 151.226 22.7708C151.286 22.7098 151.346 22.6564 151.405 22.6106C151.465 22.5649 151.532 22.5115 151.606 22.4504C151.681 22.4047 151.748 22.3589 151.807 22.3131C151.882 22.2673 151.956 22.2216 152.031 22.1758C152.12 22.1148 152.195 22.069 152.254 22.0385C152.329 22.0079 152.403 21.9698 152.478 21.924C152.552 21.8935 152.627 21.863 152.701 21.8325C152.79 21.7867 152.88 21.7486 152.969 21.718C153.044 21.6875 153.126 21.6646 153.215 21.6494C153.304 21.6189 153.401 21.5884 153.506 21.5578C153.595 21.5273 153.684 21.5121 153.774 21.5121C153.863 21.4968 153.967 21.4816 154.086 21.4663C154.191 21.451 154.288 21.451 154.377 21.4663C154.481 21.4663 154.593 21.4739 154.712 21.4892C154.95 21.535 155.166 21.6036 155.36 21.6952C155.464 21.7562 155.561 21.8249 155.651 21.9011C155.755 21.9622 155.844 22.0308 155.919 22.1071C156.008 22.1682 156.075 22.2521 156.12 22.3589C156.164 22.4047 156.217 22.4733 156.276 22.5649C156.425 21.6036 156.604 20.65 156.812 19.704C157.021 18.758 157.274 17.8197 157.572 16.8889C157.736 16.3702 157.907 15.859 158.086 15.3555C158.28 14.8367 158.496 14.3256 158.734 13.8221C158.853 13.578 158.972 13.3338 159.092 13.0897C159.226 12.8456 159.375 12.6015 159.538 12.3573C159.613 12.2353 159.687 12.1208 159.762 12.014C159.851 11.9072 159.941 11.7928 160.03 11.6707C160.224 11.4266 160.425 11.1977 160.633 10.9841C160.693 10.9384 160.753 10.8926 160.812 10.8468C160.872 10.7858 160.931 10.7324 160.991 10.6866C161.065 10.6256 161.132 10.5722 161.192 10.5264C161.252 10.4806 161.319 10.4348 161.393 10.3891C161.468 10.3433 161.542 10.2975 161.616 10.2518C161.706 10.206 161.788 10.1678 161.862 10.1373C162.041 10.0763 162.235 10.0305 162.443 10H162.912C162.942 10.0153 162.965 10.0229 162.979 10.0229C163.009 10.0229 163.039 10.0305 163.069 10.0458C163.188 10.061 163.307 10.1068 163.426 10.1831C163.531 10.2441 163.627 10.3357 163.717 10.4577C163.791 10.534 163.851 10.6332 163.896 10.7553C163.955 10.8773 163.992 10.9689 164.007 11.0299C164.022 11.0757 164.03 11.1215 164.03 11.1672C164.03 11.213 164.037 11.2588 164.052 11.3045V11.5334C164.052 11.6097 164.052 11.686 164.052 11.7623C164.052 11.8386 164.045 11.9149 164.03 11.9912C164.03 12.0674 164.022 12.1437 164.007 12.22C164.007 12.2811 164 12.3497 163.985 12.426C163.955 12.5633 163.925 12.7006 163.896 12.838C163.866 12.9753 163.836 13.105 163.806 13.227C163.776 13.3644 163.739 13.5017 163.694 13.639C163.665 13.7611 163.627 13.8831 163.583 14.0052C163.583 14.051 163.568 14.1196 163.538 14.2112L163.471 14.3943C163.441 14.4706 163.419 14.5392 163.404 14.6002C163.404 14.646 163.389 14.7071 163.359 14.7833C163.285 15.0275 163.203 15.2716 163.114 15.5157C163.024 15.7598 162.935 16.0116 162.845 16.271C162.771 16.5304 162.689 16.7821 162.6 17.0263C162.51 17.2551 162.421 17.4992 162.331 17.7586C162.138 18.2469 161.952 18.7428 161.773 19.2463C161.594 19.7345 161.4 20.2228 161.192 20.711C161.088 20.9552 160.983 21.1993 160.879 21.4434C160.79 21.6723 160.685 21.9164 160.566 22.1758C160.462 22.4199 160.358 22.664 160.253 22.9082C160.149 23.137 160.037 23.3812 159.918 23.6405C159.799 23.8847 159.68 24.1288 159.561 24.3729C159.457 24.6018 159.345 24.8459 159.226 25.1053C159.166 25.2274 159.106 25.3494 159.047 25.4715C158.987 25.5935 158.928 25.7156 158.868 25.8377L158.667 26.2039L158.578 26.387C158.578 26.4785 158.57 26.5472 158.555 26.5929C158.526 26.8523 158.503 27.1041 158.488 27.3482C158.488 27.5923 158.473 27.8365 158.444 28.0806C158.429 28.34 158.414 28.5917 158.399 28.8358C158.399 29.08 158.391 29.3241 158.377 29.5682C158.377 29.8124 158.377 30.0565 158.377 30.3006C158.377 30.5295 158.391 30.7583 158.421 30.9872C158.421 31.2313 158.444 31.4526 158.488 31.6509C158.518 31.8951 158.563 32.0934 158.622 32.246C158.667 32.4443 158.727 32.5817 158.801 32.6579L158.846 32.7495C158.876 32.78 158.89 32.7953 158.89 32.7953C158.89 32.7953 158.898 32.8029 158.913 32.8182H159.203C159.352 32.8029 159.516 32.7571 159.695 32.6808C159.859 32.6045 160.015 32.5054 160.164 32.3833C160.328 32.2612 160.492 32.1163 160.656 31.9485C160.82 31.7806 160.969 31.6052 161.103 31.4221C161.252 31.239 161.386 31.0406 161.505 30.827C161.773 30.415 162.019 29.9802 162.242 29.5225C162.302 29.4004 162.354 29.286 162.399 29.1791C162.443 29.0723 162.495 28.9579 162.555 28.8358C162.585 28.7748 162.607 28.7214 162.622 28.6756C162.652 28.6146 162.682 28.5536 162.711 28.4925L162.778 28.3323L162.845 28.1492V28.1264C162.89 28.0043 162.972 27.9204 163.091 27.8746C163.21 27.8288 163.33 27.8288 163.449 27.8746C163.687 27.9814 163.776 28.1569 163.717 28.401L163.694 28.5154L163.672 28.607C163.672 28.6528 163.657 28.7214 163.627 28.813C163.613 28.8893 163.598 28.9579 163.583 29.0189C163.568 29.0647 163.553 29.1257 163.538 29.202C163.508 29.3241 163.471 29.4538 163.426 29.5911C163.382 29.7284 163.344 29.8581 163.315 29.9802C163.27 30.1023 163.225 30.2319 163.181 30.3693C163.136 30.4913 163.091 30.621 163.047 30.7583L162.711 31.5136C162.607 31.7425 162.48 31.9866 162.331 32.246ZM160.209 17.69C160.09 18.1782 159.97 18.6665 159.851 19.1547C159.747 19.643 159.635 20.1312 159.516 20.6195C159.501 20.711 159.486 20.8026 159.471 20.8941C159.457 20.9704 159.434 21.0543 159.404 21.1459C159.524 20.978 159.628 20.8102 159.717 20.6424C159.821 20.4593 159.933 20.2838 160.052 20.116C160.306 19.6735 160.544 19.2234 160.767 18.7656C161.006 18.3079 161.229 17.8425 161.438 17.3696C161.646 16.8966 161.847 16.4236 162.041 15.9506C162.235 15.4776 162.413 14.997 162.577 14.5087C162.607 14.4477 162.629 14.3866 162.644 14.3256C162.659 14.2646 162.682 14.2035 162.711 14.1425C162.741 14.051 162.756 13.9899 162.756 13.9594C162.771 13.9289 162.778 13.8984 162.778 13.8679C162.793 13.8374 162.808 13.8068 162.823 13.7763C162.853 13.6543 162.875 13.5322 162.89 13.4101C162.92 13.2881 162.95 13.166 162.979 13.0439C163.009 12.9219 163.032 12.7998 163.047 12.6778C163.061 12.5557 163.069 12.4336 163.069 12.3116V11.9683C163.069 11.8767 163.054 11.7699 163.024 11.6478C163.024 11.6173 163.017 11.5944 163.002 11.5792C163.002 11.5487 163.002 11.5182 163.002 11.4876C162.972 11.4266 162.957 11.3885 162.957 11.3732L162.89 11.3045C162.89 11.2893 162.883 11.2817 162.868 11.2817C162.853 11.2817 162.845 11.2893 162.845 11.3045V11.3274H162.823L162.801 11.3503H162.778L162.756 11.3732C162.741 11.3732 162.726 11.3808 162.711 11.3961C162.682 11.4114 162.637 11.4495 162.577 11.5105C162.547 11.541 162.518 11.5716 162.488 11.6021C162.458 11.6326 162.428 11.6631 162.399 11.6936C162.354 11.7699 162.302 11.8538 162.242 11.9454C162.197 12.0217 162.145 12.1056 162.086 12.1971L161.818 12.8151C161.773 12.9219 161.728 13.0287 161.684 13.1355C161.639 13.2423 161.594 13.3491 161.549 13.4559C161.475 13.6848 161.393 13.9136 161.304 14.1425C161.214 14.3714 161.132 14.6002 161.058 14.8291C160.894 15.2869 160.738 15.7598 160.589 16.2481C160.455 16.7211 160.328 17.2017 160.209 17.69ZM155.74 27.0278C155.755 26.9973 155.762 26.9744 155.762 26.9591C155.777 26.9286 155.8 26.8981 155.829 26.8676C155.829 26.776 155.829 26.6921 155.829 26.6158C155.829 26.5243 155.837 26.4404 155.852 26.3641C155.852 26.2573 155.859 26.1733 155.874 26.1123C155.844 25.8987 155.859 25.7156 155.919 25.563C155.934 25.4257 155.941 25.296 155.941 25.174C155.956 25.0366 155.971 24.8993 155.986 24.762C155.956 24.7315 155.941 24.7086 155.941 24.6933L155.852 24.5102C155.822 24.4797 155.8 24.4492 155.785 24.4187C155.785 24.3882 155.777 24.3577 155.762 24.3271C155.732 24.2509 155.695 24.1898 155.651 24.1441C155.621 24.0983 155.591 24.0449 155.561 23.9838C155.412 23.755 155.271 23.5948 155.137 23.5032C155.077 23.4727 155.04 23.4574 155.025 23.4574C155.01 23.4422 154.995 23.4346 154.98 23.4346C154.965 23.4346 154.95 23.4269 154.936 23.4117H154.757C154.727 23.4269 154.697 23.4346 154.667 23.4346C154.653 23.4346 154.63 23.4422 154.6 23.4574C154.511 23.488 154.444 23.5185 154.399 23.549C154.369 23.5643 154.332 23.5795 154.288 23.5948C154.258 23.61 154.221 23.6329 154.176 23.6634C154.146 23.6939 154.109 23.7245 154.064 23.755C154.019 23.7702 153.982 23.7931 153.952 23.8236C153.863 23.8694 153.781 23.9304 153.707 24.0067C153.677 24.0372 153.654 24.0601 153.64 24.0754C153.625 24.0754 153.602 24.0906 153.573 24.1212C153.543 24.1364 153.52 24.1517 153.506 24.1669C153.506 24.1822 153.491 24.2051 153.461 24.2356C153.297 24.3882 153.141 24.5484 152.992 24.7162C152.843 24.8841 152.694 25.0672 152.545 25.2655C152.47 25.3571 152.403 25.4486 152.344 25.5401C152.284 25.6317 152.217 25.7309 152.143 25.8377C152.068 25.9292 152.008 26.0284 151.964 26.1352C151.934 26.1962 151.904 26.2496 151.874 26.2954C151.845 26.3412 151.815 26.3946 151.785 26.4556C151.725 26.5624 151.666 26.6692 151.606 26.776C151.562 26.8676 151.517 26.9668 151.472 27.0736L151.428 27.1651L151.405 27.2567L151.338 27.4169C151.279 27.5084 151.226 27.6305 151.182 27.7831C151.003 28.2255 150.847 28.6985 150.712 29.202C150.578 29.7208 150.467 30.2091 150.377 30.6668C150.362 30.7889 150.348 30.9109 150.333 31.033C150.318 31.155 150.31 31.2771 150.31 31.3992C150.295 31.5212 150.288 31.6357 150.288 31.7425C150.303 31.8493 150.31 31.9561 150.31 32.0629C150.34 32.2765 150.385 32.452 150.444 32.5893C150.474 32.6808 150.497 32.7419 150.511 32.7724L150.601 32.8639C150.645 32.9097 150.69 32.9326 150.735 32.9326C150.735 32.9478 150.75 32.9555 150.78 32.9555H150.869C150.869 32.9707 150.884 32.9784 150.914 32.9784C151.048 32.9784 151.219 32.9173 151.428 32.7953C151.621 32.6885 151.815 32.5511 152.008 32.3833C152.098 32.307 152.187 32.2231 152.277 32.1315C152.381 32.04 152.478 31.9485 152.567 31.8569C152.656 31.7501 152.746 31.6509 152.835 31.5594C152.925 31.4678 153.007 31.361 153.081 31.239C153.245 31.0406 153.409 30.827 153.573 30.5981C153.662 30.4761 153.744 30.3616 153.818 30.2548C153.908 30.148 153.99 30.0336 154.064 29.9115C154.139 29.7895 154.213 29.675 154.288 29.5682C154.362 29.4614 154.437 29.347 154.511 29.2249C154.585 29.1029 154.653 28.9808 154.712 28.8587C154.787 28.7367 154.861 28.6146 154.936 28.4925C155.01 28.3705 155.077 28.2561 155.137 28.1492C155.196 28.0272 155.263 27.9051 155.338 27.7831L155.74 27.0278Z" fill="#49494A"/>
<path d="M175.881 27.8288C175.955 27.8746 175.993 27.9356 175.993 28.0119C176.007 28.073 176 28.134 175.97 28.195C175.911 28.3018 175.821 28.4544 175.702 28.6528C175.598 28.8358 175.508 28.9808 175.434 29.0876C175.33 29.286 175.203 29.4843 175.054 29.6827C174.905 29.881 174.756 30.0794 174.607 30.2777C174.473 30.4608 174.324 30.6439 174.16 30.827C173.52 31.5441 172.842 32.2155 172.127 32.841C171.904 33.0394 171.673 33.2301 171.434 33.4132C171.211 33.6116 170.987 33.8023 170.764 33.9854H170.742C170.593 34.4431 170.436 34.9009 170.272 35.3586C170.109 35.8163 169.945 36.2664 169.781 36.7089C169.602 37.1514 169.416 37.5939 169.222 38.0363C169.029 38.4941 168.828 38.9442 168.619 39.3867C168.5 39.6155 168.381 39.8368 168.261 40.0504C168.157 40.2793 168.045 40.5005 167.926 40.7141C167.807 40.943 167.673 41.1642 167.524 41.3778C167.39 41.6067 167.241 41.8279 167.077 42.0415C167.003 42.1483 166.921 42.2475 166.831 42.3391C166.742 42.4459 166.645 42.5603 166.541 42.6824C166.317 42.9112 166.087 43.1172 165.848 43.3003C165.774 43.3461 165.699 43.3919 165.625 43.4376C165.565 43.4834 165.498 43.5292 165.424 43.575C165.305 43.636 165.215 43.6741 165.156 43.6894C165.141 43.7047 165.103 43.7275 165.044 43.758C165.014 43.758 164.992 43.758 164.977 43.758C164.962 43.7733 164.947 43.7809 164.932 43.7809C164.59 43.903 164.262 43.9717 163.949 43.9869C163.606 44.0174 163.271 43.9945 162.944 43.9183C162.78 43.8877 162.616 43.842 162.452 43.7809C162.288 43.7199 162.124 43.636 161.96 43.5292C161.797 43.4376 161.64 43.3232 161.491 43.1859C161.417 43.1096 161.35 43.0333 161.29 42.957C161.23 42.896 161.163 42.8197 161.089 42.7281C161.029 42.6519 160.977 42.5679 160.933 42.4764C160.873 42.3848 160.828 42.2857 160.798 42.1789C160.769 42.0721 160.739 41.9729 160.709 41.8813C160.679 41.7898 160.657 41.6906 160.642 41.5838C160.627 41.477 160.62 41.3778 160.62 41.2863C160.62 41.1947 160.62 41.1032 160.62 41.0116C160.635 40.9201 160.65 40.8285 160.664 40.737C160.664 40.6454 160.672 40.5615 160.687 40.4852C160.776 40.1648 160.888 39.8597 161.022 39.5698C161.082 39.4324 161.149 39.3028 161.223 39.1807C161.298 39.0586 161.372 38.9366 161.446 38.8145C161.476 38.7535 161.513 38.7001 161.558 38.6543L161.625 38.5627L161.648 38.517L161.692 38.4712C161.737 38.4102 161.782 38.3491 161.826 38.2881C161.871 38.2423 161.916 38.1966 161.96 38.1508C162.065 38.044 162.169 37.9448 162.273 37.8533C162.363 37.7617 162.459 37.6702 162.564 37.5786L163.167 37.098C163.361 36.9454 163.554 36.8005 163.748 36.6631C163.942 36.5411 164.143 36.4114 164.351 36.2741C165.156 35.7706 165.96 35.2899 166.764 34.8322L167.703 34.2829C167.777 34.0846 167.837 33.8862 167.882 33.6879C167.941 33.5048 168.001 33.3064 168.06 33.0928C168.135 32.8792 168.202 32.6656 168.261 32.452C168.321 32.2231 168.381 31.9942 168.44 31.7654C168.485 31.6128 168.53 31.4678 168.574 31.3305C168.619 31.1779 168.656 31.0254 168.686 30.8728C168.686 30.8728 168.679 30.8804 168.664 30.8957C168.589 31.0025 168.507 31.1016 168.418 31.1932C168.328 31.2847 168.239 31.3763 168.15 31.4678C167.941 31.6509 167.725 31.8188 167.502 31.9713C167.383 32.0476 167.256 32.1163 167.122 32.1773C167.003 32.2384 166.876 32.2918 166.742 32.3375C166.444 32.4443 166.169 32.5054 165.915 32.5206H165.804V32.5435H165.714C165.67 32.5435 165.625 32.5511 165.58 32.5664C165.55 32.5664 165.521 32.5664 165.491 32.5664C165.416 32.5664 165.334 32.5664 165.245 32.5664C165.17 32.5664 165.096 32.5588 165.022 32.5435C164.947 32.5283 164.865 32.513 164.776 32.4977C164.686 32.4825 164.597 32.4596 164.508 32.4291C164.329 32.3833 164.158 32.2994 163.994 32.1773C163.845 32.101 163.681 31.9713 163.502 31.7882C163.428 31.712 163.361 31.6357 163.301 31.5594C163.256 31.4678 163.204 31.3839 163.145 31.3076C163.1 31.2161 163.055 31.1245 163.011 31.033C162.981 30.9414 162.951 30.8575 162.921 30.7812C162.847 30.5981 162.802 30.4303 162.787 30.2777C162.713 29.942 162.683 29.6293 162.698 29.3394C162.698 29.0495 162.713 28.7672 162.742 28.4925L162.809 28.0806C162.824 28.0196 162.832 27.9585 162.832 27.8975C162.847 27.8365 162.862 27.7754 162.876 27.7144C162.921 27.4245 162.973 27.1727 163.033 26.9591C163.107 26.6845 163.182 26.4404 163.256 26.2268C163.286 26.1047 163.316 25.9903 163.346 25.8834C163.39 25.7766 163.435 25.6622 163.48 25.5401C163.524 25.4181 163.569 25.3036 163.614 25.1968C163.659 25.09 163.696 24.9756 163.726 24.8535C163.77 24.7315 163.815 24.6247 163.86 24.5331C163.919 24.4263 163.971 24.3119 164.016 24.1898C164.21 23.7168 164.411 23.2896 164.619 22.9082C164.649 22.8471 164.679 22.7937 164.709 22.748C164.739 22.6869 164.768 22.6335 164.798 22.5877C164.828 22.5267 164.85 22.4733 164.865 22.4275C164.895 22.3818 164.925 22.3284 164.954 22.2673C164.984 22.2216 165.014 22.1758 165.044 22.13C165.074 22.069 165.103 22.0156 165.133 21.9698L165.223 21.8096C165.252 21.7486 165.267 21.718 165.267 21.718L165.334 21.6265C165.454 21.4281 165.602 21.2679 165.781 21.1459C165.96 21.0238 166.154 20.9399 166.362 20.8941C166.571 20.8331 166.779 20.8255 166.988 20.8712C167.211 20.9018 167.42 20.978 167.613 21.1001C168.001 21.3595 168.239 21.7104 168.328 22.1529C168.433 22.5801 168.373 22.9921 168.15 23.3888L168.127 23.4346L167.993 23.6863L167.837 23.961L167.658 24.2356L167.502 24.5102C167.397 24.7086 167.293 24.8993 167.189 25.0824C167.1 25.2655 167.003 25.4486 166.898 25.6317C166.839 25.7385 166.787 25.8377 166.742 25.9292C166.697 26.0208 166.653 26.1123 166.608 26.2039C166.563 26.2954 166.511 26.3946 166.452 26.5014C166.407 26.5929 166.362 26.6845 166.317 26.776C166.273 26.8676 166.228 26.9591 166.183 27.0507C166.139 27.1422 166.102 27.2338 166.072 27.3253C166.027 27.4321 165.982 27.5313 165.938 27.6228C165.893 27.7144 165.856 27.8059 165.826 27.8975C165.781 27.989 165.737 28.0806 165.692 28.1721C165.662 28.2637 165.632 28.3552 165.602 28.4468C165.573 28.5688 165.543 28.6604 165.513 28.7214L165.446 28.9961C165.416 29.0876 165.394 29.1791 165.379 29.2707C165.364 29.347 165.349 29.4233 165.334 29.4996C165.305 29.5759 165.29 29.6521 165.29 29.7284C165.29 29.7895 165.282 29.8581 165.267 29.9344C165.267 29.9954 165.267 30.0488 165.267 30.0946C165.282 30.1251 165.29 30.1557 165.29 30.1862V30.3235C165.29 30.3693 165.312 30.3998 165.357 30.415C165.372 30.4456 165.409 30.4761 165.468 30.5066C165.528 30.5524 165.595 30.5829 165.67 30.5981C165.684 30.6134 165.699 30.621 165.714 30.621C165.729 30.621 165.751 30.6286 165.781 30.6439H165.826V30.6668H165.893C166.057 30.6973 166.221 30.7126 166.385 30.7126C166.548 30.6973 166.712 30.6592 166.876 30.5981C167.055 30.5371 167.219 30.4684 167.368 30.3922C167.442 30.3464 167.517 30.3006 167.591 30.2548C167.68 30.1938 167.762 30.1328 167.837 30.0717C168.135 29.8276 168.418 29.5225 168.686 29.1563C168.924 28.8206 169.148 28.4544 169.356 28.0577C169.386 28.0272 169.401 27.9967 169.401 27.9662C169.416 27.9204 169.438 27.8822 169.468 27.8517L169.49 27.7373C169.61 27.2795 169.714 26.8294 169.803 26.387C169.907 25.9292 170.012 25.4715 170.116 25.0137C170.176 24.7849 170.228 24.556 170.272 24.3271C170.317 24.0983 170.369 23.8694 170.429 23.6405L170.563 22.9768L170.697 22.2902H170.719C170.809 21.8477 171.032 21.5044 171.39 21.2603C171.747 21.0162 172.134 20.9399 172.552 21.0314C172.984 21.123 173.319 21.3519 173.557 21.718C173.795 22.0842 173.87 22.4886 173.78 22.9311L173.758 22.9539L173.691 23.3201L173.624 23.6634L173.445 24.35C173.401 24.5942 173.348 24.8307 173.289 25.0595C173.229 25.2884 173.17 25.5173 173.11 25.7461C172.991 26.2039 172.872 26.6692 172.753 27.1422C172.633 27.6 172.514 28.0577 172.395 28.5154L172.216 29.202L171.613 31.2619C171.539 31.506 171.479 31.7196 171.434 31.9027C171.792 31.6433 172.142 31.3687 172.485 31.0788C172.842 30.7889 173.192 30.4913 173.535 30.1862C173.862 29.8963 174.175 29.5759 174.473 29.2249C174.548 29.1334 174.622 29.0495 174.697 28.9732C174.771 28.8816 174.846 28.7901 174.92 28.6985C174.995 28.607 175.091 28.4773 175.211 28.3095C175.33 28.1264 175.427 27.989 175.501 27.8975C175.546 27.8212 175.605 27.7831 175.68 27.7831C175.754 27.7678 175.821 27.7831 175.881 27.8288ZM166.273 38.2652C166.362 38.0364 166.452 37.7999 166.541 37.5557C166.645 37.3269 166.742 37.0904 166.831 36.8462C166.772 36.8768 166.72 36.9149 166.675 36.9607C166.63 37.0064 166.578 37.0446 166.519 37.0751C166.325 37.1972 166.139 37.3269 165.96 37.4642C165.781 37.6015 165.602 37.7388 165.424 37.8761C165.245 38.0135 165.066 38.1508 164.887 38.2881C164.709 38.4254 164.537 38.5704 164.374 38.723C164.299 38.7992 164.225 38.8679 164.15 38.9289C164.076 38.99 164.001 39.0586 163.927 39.1349C163.852 39.2112 163.778 39.2799 163.703 39.3409C163.644 39.4172 163.584 39.4935 163.524 39.5698C163.495 39.6003 163.465 39.6308 163.435 39.6613C163.42 39.7071 163.398 39.7452 163.368 39.7757L163.346 39.8444L163.301 39.8902L163.234 40.0275C163.115 40.1953 163.025 40.3555 162.966 40.5081C162.906 40.676 162.869 40.8133 162.854 40.9201C162.839 41.0574 162.839 41.1566 162.854 41.2176C162.854 41.2786 162.876 41.3321 162.921 41.3778C162.936 41.3931 162.988 41.4312 163.078 41.4923C163.152 41.538 163.256 41.5685 163.39 41.5838C163.51 41.6143 163.636 41.6143 163.77 41.5838C163.86 41.5838 163.979 41.5533 164.128 41.4923C164.158 41.4923 164.172 41.4846 164.172 41.4694C164.187 41.4694 164.202 41.4617 164.217 41.4465C164.247 41.4465 164.269 41.4389 164.284 41.4236C164.299 41.4083 164.314 41.3931 164.329 41.3778C164.359 41.3778 164.388 41.3626 164.418 41.3321L164.753 40.9888C164.813 40.9125 164.865 40.8362 164.91 40.7599C164.969 40.6836 165.029 40.6073 165.089 40.531C165.208 40.3632 165.312 40.1877 165.401 40.0046C165.506 39.8368 165.61 39.6537 165.714 39.4553C165.804 39.257 165.893 39.0586 165.982 38.8603C166.087 38.6772 166.183 38.4788 166.273 38.2652Z" fill="#49494A"/>
<path d="M52.9562 21.9574H54.5869C56.1111 21.9574 57.2515 21.6526 58.0083 21.043C58.765 20.4226 59.1434 19.5245 59.1434 18.3488C59.1434 17.1623 58.8236 16.286 58.1841 15.7199C57.5553 15.1539 56.5641 14.8709 55.2104 14.8709H52.9562V21.9574ZM64.1475 18.1692C64.1475 20.7382 63.3588 22.7031 61.7814 24.0638C60.2146 25.4245 57.9816 26.1049 55.0825 26.1049H52.9562V34.5957H48V10.7234H55.4662C58.3014 10.7234 60.4544 11.3493 61.9252 12.6012C63.4068 13.8422 64.1475 15.6982 64.1475 18.1692Z" fill="#49494A"/>
<path d="M86.0821 22.431C86.0821 26.3607 84.9843 29.3706 82.7887 31.4607C80.6037 33.5507 77.4435 34.5957 73.308 34.5957H66.6891V10.7234H74.0274C77.8432 10.7234 80.8062 11.7521 82.9166 13.8095C85.027 15.8669 86.0821 18.7407 86.0821 22.431ZM80.9341 22.5616C80.9341 17.4344 78.7172 14.8709 74.2833 14.8709H71.6453V30.4156H73.7716C78.5466 30.4156 80.9341 27.7976 80.9341 22.5616Z" fill="#49494A"/>
<path d="M93.9316 34.5957H89.0554V10.7234H102.453V14.8709H93.9316V21.0267H101.861V25.1578H93.9316V34.5957Z" fill="#49494A"/>
<defs>
<clipPath id="clip0_3645_16869">
<rect width="40" height="40" fill="white" transform="translate(0 2)"/>
</clipPath>
</defs>
</svg>

